# xmcd
#
# Track frame offsets:
#	150
#	17734
#	38303
#	60838
#	75324
#	93510
#	108045
#	128761
#	147407
#	171870
#	185210
#	199947
#
# Disc length: 2853 seconds
#
# Revision: 0
# Processed by: cddbd v1.5.2PL0 Copyright (c) Steve Scherf et al.
# Submitted via: audiograbber 1.83.01
#
DISCID=920b230c
DTITLE=Steve Simpson - The Wrong Road Home
DYEAR=2010
DGENRE=Blues - Country
TTITLE0=Rough Around The Edges
TTITLE1=Mystery Train
TTITLE2=Tamp 'em Up Solid
TTITLE3=Bayou Teche
TTITLE4=River Man
TTITLE5=I Wanna Be Loved By You
TTITLE6=Still These Blues
TTITLE7=J'ai Besoin de Toi
TTITLE8=Do I Ever Cross Your Mind
TTITLE9=Wrong Road Home
TTITLE10=Too Many Memories
TTITLE11=I Believe I'm In Love With You
EXTD=
EXTT0=
EXTT1=
EXTT2=
EXTT3=
EXTT4=
EXTT5=
EXTT6=
EXTT7=
EXTT8=
EXTT9=
EXTT10=
EXTT11=
PLAYORDER=
